<svg width="275" height="275" viewBox="0 0 275 275" fill="none" xmlns="http://www.w3.org/2000/svg">
<g filter="url(#filter0_d_14_3608)">
<rect width="151.762" height="151.53" rx="19.025" transform="matrix(0.984808 0.173648 -0.174411 0.984673 75.8936 31.0695)" fill="#E9D4FF" shape-rendering="crispEdges"/>
<rect x="0.202599" y="0.28958" width="151.262" height="151.03" rx="18.775" transform="matrix(0.984808 0.173648 -0.174411 0.984673 75.9471 31.0388)" stroke="#202027" stroke-width="0.5" shape-rendering="crispEdges"/>
<mask id="path-3-outside-1_14_3608" maskUnits="userSpaceOnUse" x="105.816" y="85.2001" width="57.9098" height="68.4002" fill="black">
<rect fill="white" x="105.816" y="85.2001" width="57.9098" height="68.4002"/>
<path d="M128.971 126.299C129.442 123.634 130.416 121.553 131.89 120.054C133.374 118.503 135.419 116.885 138.026 115.202C139.826 114.035 141.184 113.039 142.1 112.211C143.026 111.33 143.587 110.33 143.786 109.211C144.059 107.666 143.61 106.323 142.438 105.182C141.329 103.997 139.735 103.222 137.657 102.855C135.525 102.479 133.49 102.643 131.552 103.345C129.668 104.057 128.032 105.224 126.645 106.848L115.867 98.3537C118.712 95.0089 122.318 92.6498 126.683 91.2765C131.048 89.9031 136.055 89.7144 141.704 90.7105C148.046 91.8288 152.9 94.0584 156.265 97.3992C159.693 100.696 160.987 104.716 160.147 109.458C159.76 111.643 159.042 113.522 157.994 115.096C156.955 116.616 155.799 117.869 154.526 118.853C153.315 119.793 151.756 120.837 149.849 121.985C147.764 123.211 146.195 124.308 145.144 125.276C144.103 126.192 143.455 127.369 143.2 128.808L128.971 126.299ZM132.348 148.654C129.736 148.194 127.719 147.014 126.297 145.115C124.884 143.162 124.386 141.014 124.801 138.669C125.226 136.271 126.401 134.445 128.327 133.191C130.306 131.947 132.628 131.559 135.292 132.029C137.957 132.499 140.005 133.657 141.437 135.503C142.869 137.349 143.372 139.471 142.947 141.869C142.532 144.213 141.325 146.061 139.327 147.412C137.339 148.71 135.012 149.124 132.348 148.654Z"/>
</mask>
<path d="M128.971 126.299C129.442 123.634 130.416 121.553 131.89 120.054C133.374 118.503 135.419 116.885 138.026 115.202C139.826 114.035 141.184 113.039 142.1 112.211C143.026 111.33 143.587 110.33 143.786 109.211C144.059 107.666 143.61 106.323 142.438 105.182C141.329 103.997 139.735 103.222 137.657 102.855C135.525 102.479 133.49 102.643 131.552 103.345C129.668 104.057 128.032 105.224 126.645 106.848L115.867 98.3537C118.712 95.0089 122.318 92.6498 126.683 91.2765C131.048 89.9031 136.055 89.7144 141.704 90.7105C148.046 91.8288 152.9 94.0584 156.265 97.3992C159.693 100.696 160.987 104.716 160.147 109.458C159.76 111.643 159.042 113.522 157.994 115.096C156.955 116.616 155.799 117.869 154.526 118.853C153.315 119.793 151.756 120.837 149.849 121.985C147.764 123.211 146.195 124.308 145.144 125.276C144.103 126.192 143.455 127.369 143.2 128.808L128.971 126.299ZM132.348 148.654C129.736 148.194 127.719 147.014 126.297 145.115C124.884 143.162 124.386 141.014 124.801 138.669C125.226 136.271 126.401 134.445 128.327 133.191C130.306 131.947 132.628 131.559 135.292 132.029C137.957 132.499 140.005 133.657 141.437 135.503C142.869 137.349 143.372 139.471 142.947 141.869C142.532 144.213 141.325 146.061 139.327 147.412C137.339 148.71 135.012 149.124 132.348 148.654Z" fill="white"/>
<path d="M128.971 126.299L128.346 126.188L128.235 126.813L128.86 126.923L128.971 126.299ZM131.89 120.054L132.342 120.499L132.348 120.492L131.89 120.054ZM138.026 115.202L138.37 115.734L138.37 115.734L138.026 115.202ZM142.1 112.211L142.525 112.681L142.531 112.676L142.537 112.67L142.1 112.211ZM142.438 105.182L141.975 105.616L141.985 105.626L141.996 105.636L142.438 105.182ZM131.552 103.345L131.337 102.749L131.329 102.752L131.552 103.345ZM126.645 106.848L126.252 107.346L126.731 107.724L127.127 107.26L126.645 106.848ZM115.867 98.3537L115.384 97.943L114.957 98.4445L115.474 98.8517L115.867 98.3537ZM126.683 91.2765L126.873 91.8813L126.873 91.8813L126.683 91.2765ZM156.265 97.3992L155.818 97.8494L155.825 97.8564L156.265 97.3992ZM157.994 115.096L158.518 115.453L158.522 115.447L157.994 115.096ZM154.526 118.853L154.138 118.351L154.137 118.352L154.526 118.853ZM149.849 121.985L150.17 122.531L150.176 122.528L149.849 121.985ZM145.144 125.276L145.563 125.753L145.569 125.748L145.574 125.742L145.144 125.276ZM143.2 128.808L143.089 129.432L143.714 129.542L143.824 128.918L143.2 128.808ZM126.297 145.115L125.783 145.487L125.789 145.495L126.297 145.115ZM128.327 133.191L127.989 132.654L127.981 132.66L128.327 133.191ZM141.437 135.503L140.936 135.892L140.936 135.892L141.437 135.503ZM139.327 147.412L139.674 147.943L139.683 147.937L139.327 147.412ZM129.595 126.409C130.051 123.835 130.98 121.883 132.342 120.499L131.438 119.61C129.851 121.223 128.834 123.434 128.346 126.188L129.595 126.409ZM132.348 120.492C133.787 118.989 135.788 117.402 138.37 115.734L137.682 114.669C135.05 116.369 132.962 118.017 131.432 119.616L132.348 120.492ZM138.37 115.734C140.182 114.56 141.572 113.542 142.525 112.681L141.675 111.741C140.796 112.535 139.47 113.511 137.681 114.67L138.37 115.734ZM142.537 112.67C143.548 111.708 144.185 110.59 144.41 109.321L143.161 109.101C142.989 110.07 142.503 110.952 141.663 111.752L142.537 112.67ZM144.41 109.321C144.722 107.559 144.196 106.007 142.881 104.728L141.996 105.636C143.025 106.638 143.396 107.773 143.161 109.101L144.41 109.321ZM142.902 104.749C141.674 103.437 139.941 102.614 137.768 102.231L137.546 103.48C139.53 103.83 140.984 104.557 141.975 105.616L142.902 104.749ZM137.768 102.231C135.532 101.837 133.384 102.007 131.337 102.749L131.768 103.941C133.596 103.279 135.518 103.122 137.546 103.48L137.768 102.231ZM131.329 102.752C129.338 103.504 127.615 104.737 126.163 106.437L127.127 107.26C128.449 105.712 129.997 104.61 131.776 103.938L131.329 102.752ZM127.038 106.35L116.26 97.8556L115.474 98.8517L126.252 107.346L127.038 106.35ZM116.35 98.7643C119.115 95.5145 122.617 93.2204 126.873 91.8813L126.493 90.6716C122.019 92.0793 118.31 94.5033 115.384 97.943L116.35 98.7643ZM126.873 91.8813C131.119 90.5453 136.02 90.3522 141.594 91.335L141.815 90.0861C136.09 89.0767 130.977 89.2609 126.493 90.6716L126.873 91.8813ZM141.594 91.335C147.853 92.4386 152.572 94.6269 155.818 97.8493L156.712 96.9492C153.227 93.4898 148.24 91.2189 141.815 90.0861L141.594 91.335ZM155.825 97.8564C159.098 101.005 160.326 104.811 159.522 109.348L160.771 109.569C161.648 104.621 160.287 100.388 156.705 96.9421L155.825 97.8564ZM159.522 109.348C159.148 111.462 158.458 113.256 157.466 114.745L158.522 115.447C159.626 113.789 160.372 111.825 160.771 109.569L159.522 109.348ZM157.47 114.739C156.464 116.212 155.352 117.413 154.138 118.351L154.914 119.354C156.247 118.324 157.447 117.021 158.518 115.453L157.47 114.739ZM154.137 118.352C152.953 119.272 151.417 120.302 149.522 121.442L150.176 122.528C152.096 121.373 153.677 120.315 154.915 119.354L154.137 118.352ZM149.528 121.438C147.426 122.673 145.814 123.797 144.715 124.81L145.574 125.742C146.577 124.818 148.101 123.748 150.17 122.531L149.528 121.438ZM144.726 124.8C143.57 125.816 142.854 127.125 142.575 128.697L143.824 128.918C144.056 127.613 144.636 126.567 145.563 125.753L144.726 124.8ZM143.311 128.183L129.081 125.674L128.86 126.923L143.089 129.432L143.311 128.183ZM132.458 148.03C129.985 147.594 128.119 146.489 126.805 144.735L125.789 145.495C127.32 147.539 129.487 148.794 132.237 149.279L132.458 148.03ZM126.811 144.743C125.498 142.927 125.041 140.952 125.425 138.779L124.176 138.559C123.731 141.075 124.271 143.397 125.783 145.487L126.811 144.743ZM125.425 138.779C125.822 136.542 126.904 134.874 128.673 133.722L127.981 132.66C125.898 134.016 124.63 136 124.176 138.559L125.425 138.779ZM128.664 133.728C130.489 132.58 132.646 132.206 135.182 132.654L135.403 131.405C132.609 130.912 130.123 131.313 127.989 132.655L128.664 133.728ZM135.182 132.654C137.718 133.101 139.615 134.189 140.936 135.892L141.938 135.114C140.395 133.124 138.197 131.897 135.403 131.405L135.182 132.654ZM140.936 135.892C142.252 137.59 142.718 139.529 142.323 141.759L143.572 141.979C144.026 139.413 143.485 137.108 141.938 135.114L140.936 135.892ZM142.323 141.759C141.938 143.932 140.83 145.631 138.972 146.887L139.683 147.937C141.821 146.491 143.126 144.495 143.572 141.979L142.323 141.759ZM138.981 146.881C137.146 148.079 134.988 148.476 132.458 148.03L132.237 149.279C135.036 149.772 137.531 149.342 139.674 147.943L138.981 146.881Z" fill="#202027" mask="url(#path-3-outside-1_14_3608)"/>
</g>
<defs>
<filter id="filter0_d_14_3608" x="-2.57263" y="-2.04524" width="279.96" height="279.635" filterUnits="userSpaceOnUse" color-interpolation-filters="sRGB">
<feFlood flood-opacity="0" result="BackgroundImageFix"/>
<feColorMatrix in="SourceAlpha" type="matrix" values="0 0 0 0 0 0 0 0 0 0 0 0 0 0 0 0 0 0 127 0" result="hardAlpha"/>
<feMorphology radius="11.3536" operator="erode" in="SourceAlpha" result="effect1_dropShadow_14_3608"/>
<feOffset dy="18.9227"/>
<feGaussianBlur stdDeviation="31.6956"/>
<feComposite in2="hardAlpha" operator="out"/>
<feColorMatrix type="matrix" values="0 0 0 0 0 0 0 0 0 0 0 0 0 0 0 0 0 0 0.3 0"/>
<feBlend mode="normal" in2="BackgroundImageFix" result="effect1_dropShadow_14_3608"/>
<feBlend mode="normal" in="SourceGraphic" in2="effect1_dropShadow_14_3608" result="shape"/>
</filter>
</defs>
</svg>
